<?xml version="1.0" standalone="no"?>
<!DOCTYPE svg PUBLIC "-//W3C//DTD SVG 20010904//EN"
 "http://www.w3.org/TR/2001/REC-SVG-20010904/DTD/svg10.dtd">
<svg version="1.0" xmlns="http://www.w3.org/2000/svg"
 width="250.000000pt" height="250.000000pt" viewBox="0 0 250.000000 250.000000"
 preserveAspectRatio="xMidYMid meet">
<metadata>
Created by potrace 1.11, written by Peter Selinger 2001-2013
</metadata>
<g transform="translate(0.000000,250.000000) scale(0.100000,-0.100000)"
fill="#000000" stroke="none">
<path d="M10 2035 c0 -151 2 -165 18 -165 9 0 22 10 27 22 14 31 37 34 230 33
l170 0 3 -482 c2 -474 2 -483 -18 -495 -19 -12 -28 -47 -12 -49 4 0 79 -2 168
-2 155 -2 161 -1 160 18 -1 11 -10 25 -21 30 -20 10 -20 22 -23 496 l-2 485
187 -2 c104 -1 191 -2 196 -3 4 0 13 -12 19 -26 6 -14 19 -25 30 -25 17 0 18
11 18 165 0 158 -1 165 -20 165 -11 0 -20 -6 -20 -14 0 -40 -13 -41 -532 -42
-520 0 -538 1 -538 42 0 8 -9 14 -20 14 -19 0 -20 -7 -20 -165z"/>
<path d="M2440 2028 c0 -4 -9 -17 -20 -28 -19 -19 -33 -20 -535 -20 -487 0
-515 -1 -515 -18 0 -10 9 -25 20 -35 20 -16 20 -29 20 -566 0 -302 -3 -556 -6
-565 -3 -9 -12 -16 -20 -16 -8 0 -14 -10 -14 -24 l0 -24 521 -1 c286 0 529 -3
540 -6 10 -4 19 -13 19 -21 0 -8 9 -14 20 -14 19 0 20 7 20 159 0 89 -4 162
-9 166 -6 3 -16 -2 -23 -10 -48 -60 -13 -55 -422 -55 -290 0 -375 3 -378 13
-3 10 -2 262 1 303 1 8 68 11 237 10 235 -1 236 -1 255 -25 10 -13 19 -32 19
-42 0 -12 7 -19 20 -19 19 0 20 7 20 185 0 174 -1 185 -19 185 -13 0 -20 -9
-25 -30 -3 -19 -14 -34 -28 -39 -36 -14 -476 -12 -480 2 -3 10 -2 260 1 277 2
8 724 4 748 -4 12 -4 25 -16 28 -27 4 -12 14 -19 23 -17 15 3 17 22 19 158 1
147 0 156 -18 156 -10 0 -19 -4 -19 -8z"/>
<path d="M873 1531 c-1 -14 7 -22 27 -26 16 -3 31 -12 34 -20 2 -7 5 -259 5
-559 1 -479 -1 -547 -15 -561 -8 -8 -23 -15 -33 -15 -16 0 -28 -38 -13 -41 4
-1 241 -3 527 -4 286 -1 530 -3 541 -4 13 0 24 -10 27 -21 3 -11 14 -20 24
-20 17 0 19 10 18 162 0 148 -2 161 -18 164 -11 1 -22 -7 -27 -22 -6 -14 -19
-28 -31 -33 -12 -4 -187 -7 -388 -7 l-365 1 0 475 c-1 439 0 476 17 493 9 9
23 17 30 17 7 0 13 9 14 20 2 19 -4 20 -185 20 -178 0 -188 -1 -189 -19z"/>
</g>
</svg>
